<svg width="246" height="78" viewBox="0 0 246 78" fill="none" xmlns="http://www.w3.org/2000/svg">
<path opacity="0.5" d="M73.775 33.3365L66.2339 61.8224C63.6832 71.4673 53.8133 77.1869 44.2761 74.6075L16.108 66.9813C6.57071 64.4019 0.914876 54.4205 3.46554 44.7757L11.0066 16.2897C13.5573 6.64485 23.4272 0.925229 32.9644 3.50467L61.1326 11.1308C70.6699 13.7103 76.3257 23.6916 73.775 33.3365Z" fill="url(#paint0_linear)"/>
<path opacity="0.25" d="M71.1135 24.2523V53.7477C71.1135 63.729 63.0179 71.9159 53.148 71.9159H23.9818C14.1118 71.9159 6.01624 63.729 6.01624 53.7477V24.2523C6.01624 14.271 14.1118 6.08411 23.9818 6.08411H53.148C63.0179 6.19626 71.1135 14.271 71.1135 24.2523Z" fill="url(#paint1_linear)"/>
<path opacity="0.1" d="M66.2339 16.2897L73.775 44.7757C76.3257 54.4205 70.6699 64.4019 61.1326 66.9813L32.9644 74.6075C23.4272 77.1869 13.5573 71.4673 11.0066 61.8224L3.46554 33.3365C0.914876 23.6916 6.57071 13.7103 16.108 11.1308L44.2761 3.50467C53.8133 0.925229 63.6832 6.64485 66.2339 16.2897Z" fill="url(#paint2_linear)"/>
<path opacity="0.75" d="M73.9968 42.6449L59.4691 68.215C54.5896 76.8505 43.4998 79.8785 34.9606 74.8318L9.78673 60.1402C1.24757 55.2056 -1.74671 43.9907 3.24371 35.3551L17.7714 9.78505C22.6509 1.14954 33.7407 -1.87849 42.2799 3.16824L67.5647 17.8598C75.9929 22.9065 78.9872 34.0093 73.9968 42.6449Z" fill="url(#paint3_linear)"/>
<path d="M71.8898 51.8411L51.2627 72.7009C44.2761 79.7664 32.8536 79.7664 25.8671 72.7009L5.23994 51.8411C-1.74665 44.7757 -1.74665 33.2243 5.23994 26.1589L25.8671 5.29907C32.8536 -1.76635 44.2761 -1.76635 51.2627 5.29907L71.8898 26.1589C78.8764 33.2243 78.8764 44.7757 71.8898 51.8411Z" fill="url(#paint4_linear)"/>
<path d="M109.928 40.6262L103.496 47.2431V56.4393H98.5054V20.7758H103.496V40.6262L122.57 20.7758H128.337L113.255 36.8132L129.224 56.4393H123.347L109.928 40.6262Z" fill="url(#paint5_linear)"/>
<path d="M159.167 29.4113V56.3271H154.509V52.0654C153.4 53.5234 152.069 54.6449 150.406 55.4299C148.742 56.215 146.968 56.5514 144.972 56.5514C142.421 56.5514 140.092 55.9907 137.985 54.8692C135.989 53.7477 134.325 52.0655 133.216 50.0468C132.108 47.9159 131.442 45.5608 131.442 42.8692C131.442 40.1776 131.997 37.7103 133.216 35.6916C134.325 33.673 135.989 31.9907 137.985 30.8692C139.981 29.7477 142.31 29.187 144.972 29.187C146.857 29.187 148.631 29.5234 150.295 30.3084C151.958 31.0935 153.289 32.1028 154.287 33.5608V29.5234H159.167V29.4113ZM149.962 51.2804C151.293 50.4954 152.402 49.3739 153.178 47.9159C153.954 46.458 154.287 44.7758 154.287 42.9814C154.287 41.0748 153.954 39.5047 153.178 38.0468C152.402 36.5888 151.293 35.4673 149.962 34.6823C148.631 33.8972 147.079 33.5608 145.415 33.5608C143.752 33.5608 142.199 33.8972 140.758 34.6823C139.427 35.4673 138.318 36.5888 137.542 38.0468C136.765 39.5047 136.322 41.187 136.322 42.9814C136.322 44.8879 136.765 46.458 137.542 47.9159C138.318 49.3739 139.427 50.4954 140.758 51.2804C142.088 52.0655 143.641 52.5141 145.415 52.5141C147.079 52.4019 148.631 52.0655 149.962 51.2804Z" fill="url(#paint6_linear)"/>
<path d="M170.922 55.8785C168.926 55.3177 167.373 54.5327 166.153 53.6355L168.149 49.8224C169.369 50.7196 170.7 51.3925 172.475 51.8411C174.138 52.4018 175.801 52.6261 177.576 52.6261C181.79 52.6261 183.897 51.3925 183.897 48.9252C183.897 48.1402 183.564 47.4672 183.01 47.0186C182.455 46.5701 181.679 46.2336 180.903 46.0093C180.016 45.785 178.796 45.5607 177.243 45.2243C175.136 44.8878 173.362 44.4392 172.031 44.1028C170.7 43.6542 169.48 42.8691 168.482 41.8598C167.484 40.8505 167.04 39.2803 167.04 37.4859C167.04 35.0186 168.039 33.1121 170.035 31.6542C172.031 30.1962 174.692 29.4112 178.13 29.4112C179.905 29.4112 181.679 29.6355 183.453 30.0841C185.228 30.5327 186.669 31.0934 187.778 31.8785L185.671 35.6916C183.453 34.2336 180.903 33.5607 178.019 33.5607C176.023 33.5607 174.36 33.8972 173.362 34.5701C172.253 35.243 171.698 36.1402 171.698 37.2617C171.698 38.1589 172.031 38.8317 172.585 39.3925C173.14 39.9532 173.916 40.2897 174.803 40.514C175.691 40.7383 176.91 41.0748 178.574 41.2991C180.681 41.6355 182.455 42.0841 183.786 42.5327C185.117 42.9813 186.226 43.6542 187.224 44.6635C188.111 45.6729 188.666 47.1308 188.666 48.9252C188.666 51.3925 187.668 53.299 185.561 54.757C183.453 56.2149 180.681 56.8878 177.132 56.8878C175.025 56.6635 172.918 56.4392 170.922 55.8785Z" fill="url(#paint7_linear)"/>
<path d="M217.166 30.8692C219.163 31.9907 220.826 33.6729 221.935 35.6916C223.044 37.7103 223.709 40.1776 223.709 42.8692C223.709 45.5608 223.155 48.0281 221.935 50.0467C220.826 52.1776 219.163 53.7477 217.166 54.8692C215.17 55.9907 212.841 56.5514 210.18 56.5514C208.295 56.5514 206.52 56.215 204.968 55.4299C203.415 54.6449 201.973 53.6355 200.864 52.1776V66.0841H195.985V29.2991H200.643V33.5607C201.752 32.1028 203.082 30.9813 204.746 30.1963C206.409 29.4112 208.184 29.0748 210.18 29.0748C212.731 29.1869 215.059 29.7477 217.166 30.8692ZM214.394 51.2804C215.725 50.4953 216.834 49.3739 217.61 47.9159C218.386 46.458 218.83 44.7757 218.83 42.9813C218.83 41.0748 218.386 39.5047 217.61 38.0467C216.834 36.5888 215.725 35.4673 214.394 34.6822C213.063 33.8972 211.511 33.5607 209.736 33.5607C208.073 33.5607 206.52 34.0094 205.189 34.7944C203.859 35.5794 202.75 36.7009 201.973 38.1589C201.197 39.6168 200.754 41.1869 200.754 43.0935C200.754 45 201.086 46.5701 201.863 48.0281C202.639 49.486 203.748 50.6075 205.079 51.3926C206.409 52.1776 207.962 52.6262 209.625 52.6262C211.511 52.4019 213.063 52.0654 214.394 51.2804Z" fill="url(#paint8_linear)"/>
<path d="M240.011 30.4206C241.675 29.6356 243.671 29.187 246 29.187V33.8972C245.778 33.8972 245.335 33.8972 244.891 33.8972C242.229 33.8972 240.233 34.6823 238.681 36.2524C237.239 37.8225 236.463 40.0655 236.463 42.9814V56.4393H231.583V29.5234H236.241V34.0094C237.128 32.4393 238.348 31.2056 240.011 30.4206Z" fill="url(#paint9_linear)"/>
<path d="M41.6146 22.6822C35.1825 22.6822 29.7484 28.2897 28.1959 34.3457C27.7523 36.3644 25.9779 38.8317 23.8709 38.8317H23.7599C20.6548 38.8317 18.5477 40.8504 19.5458 43.7663C21.9856 51.056 28.8613 55.7663 36.9569 55.7663C47.1595 55.7663 55.3659 47.1308 55.3659 36.9252C55.4768 29.1868 49.2666 22.6822 41.6146 22.6822Z" fill="url(#paint10_linear)"/>
<path d="M43.4998 35.9159C44.2348 35.9159 44.8306 34.9116 44.8306 33.6729C44.8306 32.4341 44.2348 31.4299 43.4998 31.4299C42.7648 31.4299 42.1691 32.4341 42.1691 33.6729C42.1691 34.9116 42.7648 35.9159 43.4998 35.9159Z" fill="url(#paint11_linear)"/>
<path d="M50.1537 35.9159C50.8887 35.9159 51.4845 34.9116 51.4845 33.6729C51.4845 32.4341 50.8887 31.4299 50.1537 31.4299C49.4188 31.4299 48.823 32.4341 48.823 33.6729C48.823 34.9116 49.4188 35.9159 50.1537 35.9159Z" fill="url(#paint12_linear)"/>
<path d="M46.9377 39.2803C46.2723 39.2803 45.6069 39.056 45.1633 38.4953C44.8306 38.1588 44.3871 38.4953 44.3871 38.8317C44.498 40.0653 45.496 41.0747 46.8268 41.1869C48.3794 41.299 49.5992 40.0653 49.5992 38.6074C49.5992 38.2709 49.1557 38.0467 48.9339 38.3831C48.3794 38.9439 47.714 39.2803 46.9377 39.2803Z" fill="url(#paint13_linear)"/>
<defs>
<linearGradient id="paint0_linear" x1="30.2624" y1="70.9901" x2="47.4382" y2="7.60119" gradientUnits="userSpaceOnUse">
<stop/>
<stop offset="1" stop-color="#4F007E"/>
</linearGradient>
<linearGradient id="paint1_linear" x1="38.6102" y1="71.8874" x2="38.6102" y2="6.16059" gradientUnits="userSpaceOnUse">
<stop/>
<stop offset="1" stop-color="#4F007E"/>
</linearGradient>
<linearGradient id="paint2_linear" x1="12.1603" y1="66.1547" x2="66.2402" y2="12.6797" gradientUnits="userSpaceOnUse">
<stop/>
<stop offset="1" stop-color="#4F007E"/>
</linearGradient>
<linearGradient id="paint3_linear" x1="22.4853" y1="67.5662" x2="55.5319" y2="10.9681" gradientUnits="userSpaceOnUse">
<stop/>
<stop offset="1" stop-color="#4F007E"/>
</linearGradient>
<linearGradient id="paint4_linear" x1="15.6454" y1="62.3018" x2="62.1177" y2="16.348" gradientUnits="userSpaceOnUse">
<stop/>
<stop offset="1" stop-color="#4F007E"/>
</linearGradient>
<linearGradient id="paint5_linear" x1="97.3475" y1="55.3074" x2="130.262" y2="22.76" gradientUnits="userSpaceOnUse">
<stop stop-opacity="0"/>
<stop offset="0.7581" stop-color="#7500A0"/>
</linearGradient>
<linearGradient id="paint6_linear" x1="137.247" y1="54.829" x2="161.017" y2="31.3237" gradientUnits="userSpaceOnUse">
<stop stop-opacity="0"/>
<stop offset="0.7581" stop-color="#7500A0"/>
</linearGradient>
<linearGradient id="paint7_linear" x1="166.815" y1="54.1803" x2="188.741" y2="32.4989" gradientUnits="userSpaceOnUse">
<stop stop-opacity="0"/>
<stop offset="0.7581" stop-color="#7500A0"/>
</linearGradient>
<linearGradient id="paint8_linear" x1="189.581" y1="59.7526" x2="218.263" y2="31.3902" gradientUnits="userSpaceOnUse">
<stop stop-opacity="0"/>
<stop offset="0.7581" stop-color="#7500A0"/>
</linearGradient>
<linearGradient id="paint9_linear" x1="226.148" y1="50.8938" x2="247.006" y2="30.2687" gradientUnits="userSpaceOnUse">
<stop stop-opacity="0"/>
<stop offset="0.7581" stop-color="#7500A0"/>
</linearGradient>
<linearGradient id="paint10_linear" x1="22.5709" y1="49.5342" x2="54.424" y2="31.349" gradientUnits="userSpaceOnUse">
<stop stop-color="white" stop-opacity="0"/>
<stop offset="0.7688" stop-color="white"/>
</linearGradient>
<linearGradient id="paint11_linear" x1="42.2451" y1="33.7246" x2="44.8427" y2="33.7246" gradientUnits="userSpaceOnUse">
<stop/>
<stop offset="1" stop-color="#4F007E"/>
</linearGradient>
<linearGradient id="paint12_linear" x1="48.839" y1="33.7246" x2="51.4366" y2="33.7246" gradientUnits="userSpaceOnUse">
<stop/>
<stop offset="1" stop-color="#4F007E"/>
</linearGradient>
<linearGradient id="paint13_linear" x1="44.3374" y1="39.7538" x2="49.5336" y2="39.7538" gradientUnits="userSpaceOnUse">
<stop/>
<stop offset="1" stop-color="#4F007E"/>
</linearGradient>
</defs>
</svg>
