<svg xmlns="http://www.w3.org/2000/svg" width="104" height="105" viewBox="0 0 104 105">
  <g fill="#FFFFFF" transform="translate(-1 -1)">
    <path d="M65.566517,23.116382 L65.566517,43.520655 L72.697043,48.010536 C72.885101,48.065386 73.292559,48.069306 73.480617,48.010536 L104.1693,27.320258 C104.1693,24.871588 101.88518,23.116382 100.596204,23.116382 L65.566517,23.116382 L65.566517,23.116382 Z"/>
    <path d="M65.566517,51.133079 L72.074101,55.60337 C72.990883,56.277244 74.095723,55.60337 74.095723,55.60337 C72.994801,56.277244 104.17322,35.567377 104.17322,35.567377 L104.17322,73.06924 C104.17322,77.151662 101.56,78.863771 98.621597,78.863771 L65.562599,78.863771 L65.562599,51.133079 L65.566517,51.133079 Z"/>
    <g transform="translate(.272 .794)">
      <path d="M31.6006063,40.9320326 C29.3830912,40.9320326 27.6161312,41.9741863 26.3114801,44.054576 C25.006829,46.1349656 24.3525445,48.889229 24.3525445,52.3173663 C24.3525445,55.7964359 25.006829,58.5467815 26.3114801,60.5684031 C27.6161312,62.5939425 29.328241,63.6008354 31.4438914,63.6008354 C33.6261457,63.6008354 35.3578447,62.6174497 36.6350707,60.6506784 C37.9122968,58.683907 38.5548276,55.9531508 38.5548276,52.4623276 C38.5548276,48.8226252 37.935804,45.9900043 36.6938388,43.9644649 C35.4518736,41.9428434 33.7554354,40.9320326 31.6006063,40.9320326 Z"/>
      <path d="M0.727781199,11.9593751 L0.727781199,91.7860008 L61.4547848,104.519082 L61.4547848,0.205761486 L0.727781199,11.9593751 L0.727781199,11.9593751 Z M41.3639413,65.3677953 C38.7977356,68.7450003 35.4518736,70.4375206 31.3224374,70.4375206 C27.2987837,70.4375206 24.0234434,68.7998505 21.4885807,65.528428 C18.9576359,62.2530877 17.6882456,57.9904438 17.6882456,52.7326607 C17.6882456,47.1810372 18.9733074,42.6911568 21.5473488,39.2630195 C24.1213901,35.8348822 27.5299381,34.1188546 31.7729926,34.1188546 C35.7809748,34.1188546 39.0249722,35.7565248 41.4971489,39.0397008 C43.9732435,42.3228769 45.2112908,46.6482067 45.2112908,52.0196081 C45.2152087,57.5398886 43.9301469,61.9905903 41.3639413,65.3677953 Z"/>
    </g>
  </g>
</svg>
